<?xml version="1.0" encoding="UTF-8"?>
<svg id="Layer_1" data-name="Layer 1" xmlns="http://www.w3.org/2000/svg" version="1.1" viewBox="0 0 833.7 275.3">
  <defs>
    <style>
      .cls-1 {
        fill: #344973;
      }

      .cls-1, .cls-2, .cls-3 {
        stroke-width: 0px;
      }

      .cls-2 {
        fill: #1199ce;
      }

      .cls-3 {
        fill: #fff;
      }
    </style>
  </defs>
  <g>
    <g>
      <path class="cls-1" d="M383.1,89.5v13.2h-55V31.7h53.7v13.2h-37.3v15.4h33v12.8h-33v16.4h38.7Z"/>
      <path class="cls-1" d="M450.8,71.4v31.2h-15.8v-28.8c0-8.8-4.1-12.9-11.1-12.9s-13.1,4.7-13.1,14.7v27h-15.8V27.4h15.8v26.4c4.3-4.3,10.3-6.5,17.3-6.5,12.9,0,22.6,7.5,22.6,24.1Z"/>
      <path class="cls-1" d="M500.3,100c-3.2,2.3-8,3.4-12.9,3.4-12.9,0-20.4-6.6-20.4-19.6v-22.4h-8.4v-12.2h8.4v-13.3h15.8v13.3h13.6v12.2h-13.6v22.2c0,4.7,2.5,7.2,6.8,7.2s4.7-.7,6.4-2l4.3,11.2Z"/>
    </g>
    <path class="cls-2" d="M507.3,31.7c0-5,4-8.8,9.8-8.8s9.8,3.7,9.8,8.5-4,9.1-9.8,9.1-9.8-3.9-9.8-8.8ZM509.3,48.1h15.8v54.6h-15.8v-54.6Z"/>
    <g>
      <path class="cls-1" d="M632,71.4v31.2h-15.8v-28.8c0-8.8-4-12.9-10.3-12.9s-12.1,4.6-12.1,14.3v27.4h-15.8v-28.8c0-8.8-3.8-12.9-10.3-12.9s-12,4.6-12,14.3v27.4h-15.8v-54.6h15.1v6.3c4.1-4.7,10.1-7.1,17.1-7.1s14.1,2.9,18,8.9c4.4-5.6,11.5-8.9,19.7-8.9,13,0,22.3,7.5,22.3,24.1Z"/>
      <path class="cls-1" d="M694.5,71.5v31.1h-14.8v-6.8c-2.9,5-8.6,7.6-16.6,7.6-12.8,0-20.4-7.1-20.4-16.5s6.8-16.3,23.4-16.3h12.6c0-6.8-4.1-10.8-12.6-10.8s-11.8,1.9-15.7,5.1l-5.7-11.1c6-4.3,14.8-6.6,23.5-6.6,16.6,0,26.3,7.7,26.3,24.2ZM678.7,85.4v-5.6h-10.9c-7.4,0-9.7,2.7-9.7,6.4s3.3,6.6,8.9,6.6,9.8-2.4,11.7-7.4Z"/>
      <path class="cls-1" d="M801,71.4v31.2h-15.8v-28.8c0-8.8-4-12.9-10.3-12.9s-12.1,4.6-12.1,14.3v27.4h-15.8v-28.8c0-8.8-3.8-12.9-10.3-12.9s-12,4.6-12,14.3v27.4h-15.8v-54.6h15.1v6.3c4.1-4.7,10.1-7.1,17.1-7.1s14.1,2.9,18,8.9c4.4-5.6,11.5-8.9,19.7-8.9,13,0,22.3,7.5,22.3,24.1Z"/>
      <path class="cls-1" d="M813.3,31.7c0-5,4-8.8,9.8-8.8s9.8,3.7,9.8,8.5-4,9.1-9.8,9.1-9.8-3.9-9.8-8.8ZM815.2,48.1h15.8v54.6h-15.8v-54.6Z"/>
    </g>
  </g>
  <g>
    <path class="cls-1" d="M66.5,156.2s2.4-8.7,15.1-16.1c7.8-4.5,16.9-6.5,25.9-6.5h104.9s-33.6-47.8-82-56.2c0,0-23.5-5.5-43.6.1-12.1,3.4-20.4,14.7-20.4,27.3v51.4Z"/>
    <path class="cls-1" d="M66.5,177s11.1-20.3,32.7-20.8h97.1l-7.1-11.7-95.9,2.1s-20.1,1-26.8,18v12.4Z"/>
    <path class="cls-1" d="M195.1,173.8h-87.4c-9.8,0-19.5,3.2-26.6,9.9-2.3,2.1-4.4,4.7-6.2,7.7v-14.5s2.8-9.6,19.8-13.4c3.9-.9,7.9-1.1,11.8-1.1h84s-1.3,7.1,4.6,11.3"/>
    <path class="cls-1" d="M104.7,181.2h83.9l.4,6.9c.4,5.9,3.7,11.3,8.8,14.3l-117.5,1.3s-1.9-10.3,8.3-17.7c4.6-3.3,10.3-4.8,16-4.8"/>
    <path class="cls-2" d="M254,140.4c1.4-.3,9.8-.3,11.4,0-.5.9-1,2-1.8,2.7-1.6,1.4-4.6.9-6.6.8-1.5-.9-2.2-2.1-3-3.5"/>
    <path class="cls-2" d="M248.1,124.8c5.1,0,10.1,0,15.2,0,2.8,0,5.8-.2,8.6,0,0,2.7.3,8.7-.2,11-.2.9-.6,1.7-1.2,2.3-.7.7-1.6,1.1-2.6,1.4,0,0,0,0-.1,0-.6.1-1.4,0-1.9.2-.2.2-.3.4-.4.7-1.5-.3-10-.3-11.4,0-.2-.2-.4-.6-.6-.8-.2,0-.2,0-.4,0-1.3,0-2.7-.4-3.6-1.4-.6-.6-1.1-1.5-1.2-2.4-.3-1.5-.2-3.2-.2-4.7,0-2.2,0-4.3,0-6.5"/>
    <path class="cls-3" d="M253.5,139.6c1.8-.6,11.8-.1,14.4,0,0,0,0,0-.1,0-.6.1-1.4,0-1.9.2-.2.2-.3.4-.4.7-1.5-.3-10-.3-11.4,0-.2-.2-.4-.6-.6-.8"/>
    <path class="cls-3" d="M250.6,127.2c2.8-.1,17.4-.4,19.2.2.2.2.3.3.4.6.1.3.1.7,0,1-.3.5-.6.7-1.2.8-2.4,0-17.4.3-18.8-.1-.4-.1-.8-.4-.9-.8,0-.3,0-.7.1-1,.3-.5.7-.6,1.2-.7"/>
    <path class="cls-3" d="M250.4,132.3c2,0,18.3-.3,19.2.1.2,0,.4.4.5.6.2.5.2,1.2,0,1.6-.2.3-.5.4-.9.5-3.9.2-7.9,0-11.8,0-2.2,0-4.7.3-6.9,0-.4,0-.6-.2-.9-.6-.2-.4-.3-.8-.1-1.3.2-.5.5-.7,1-1"/>
    <path class="cls-2" d="M248.1,124.8c-.6-1.9-2.2-3.8-2.9-5.7-.7-1.9-1.6-3.7-2.5-5.5-1.5-3-3.4-5.9-4.8-9-3.3-7.2-3.4-14.7.4-21.7,3.1-5.6,8.4-9.5,14.5-11.3.2,0,.4-.1.6-.2.2,0,.4,0,.6-.1.2,0,.4,0,.6-.1.2,0,.4,0,.6-.1s.4,0,.6-.1c.2,0,.4,0,.6,0,.2,0,.4,0,.6,0,.2,0,.4,0,.6,0,.2,0,.4,0,.6,0,.2,0,.4,0,.6,0,.2,0,.4,0,.6,0,.2,0,.4,0,.6,0,.2,0,.4,0,.6,0,.2,0,.4,0,.6,0s.4,0,.6,0c.2,0,.4,0,.6,0,.2,0,.4,0,.6,0,.2,0,.4,0,.6,0,.2,0,.4,0,.6.1.2,0,.4,0,.6.1.2,0,.4,0,.6.1.2,0,.4,0,.6.2.2,0,.4.1.6.2.2,0,.4.1.6.2.2,0,.4.1.6.2.2,0,.4.1.6.2.2,0,.4.1.6.2.2,0,.4.2.6.2.2,0,.4.2.6.3.2,0,.4.2.5.3.2,0,.4.2.5.3.2,0,.4.2.5.3,5.7,3.2,9.7,8.3,11.4,14.7,1.6,6,.7,12.2-2.4,17.5-1,1.7-2.1,3.4-3,5.2-2.2,4.4-4.7,9-5.9,13.7h-6s-2.1,0-2.1,0c-2.6,0-5.2,0-7.8,0h-2.1s-5.7,0-5.7,0Z"/>
    <path class="cls-3" d="M254.1,94.5c0-3-.6-7.7,1.7-9.9,1.1-1,2.7-1.5,4.2-1.4,1.4,0,2.8.7,3.8,1.8,2,2.3,1.3,7.4,1.4,10.3,1-1.8,2.1-4,4.3-4.7,1.1-.3,2.3-.2,3.3.4.1,0,.3.2.4.3.1,0,.2.2.4.3.1.1.2.2.3.3.1.1.2.2.3.4,0,.1.2.3.2.4,0,.1.1.3.2.4,0,.1.1.3.2.4,0,.1,0,.3.1.5,0,.2,0,.3,0,.5,0,.2,0,.3,0,.5,0,.2,0,.3,0,.5,0,.2,0,.3,0,.5,0,.2,0,.3-.1.5,0,.2,0,.3-.2.5,0,.1-.1.3-.2.4,0,.1-.2.3-.2.4-.7,1.1-1.9,1.8-3.2,2-1.6.3-3.4,0-5.1,0v25.1s-2.1,0-2.1,0c-2.6,0-5.2,0-7.8,0h-2.1s0-25,0-25c-2.6,0-5.7.5-7.7-1.6-.9-.9-1.3-2.1-1.3-3.4,0,0,0-.2,0-.2,0,0,0-.2,0-.2,0,0,0-.2,0-.2s0-.2,0-.2c0,0,0-.2,0-.2,0,0,0-.1,0-.2,0,0,0-.1,0-.2,0,0,0-.1,0-.2,0,0,0-.1.1-.2,0,0,0-.1.1-.2,0,0,0-.1.1-.2,0,0,0-.1.1-.2,0,0,0-.1.1-.2,0,0,.1-.1.2-.2,0,0,.1-.1.2-.2,0,0,.1-.1.2-.2.8-.7,1.9-1.2,3.1-1.1,1.6.1,2.6,1.1,3.5,2.3.4.6.9,1.1,1.3,1.7"/>
    <path class="cls-2" d="M248.8,92.6c.3,0,.5,0,.8.1,1.7.5,3.2,3.6,4,5h-2.2c-.9,0-1.9.1-2.8-.3-.8-.3-1.4-.9-1.7-1.7-.2-.6-.2-1.1,0-1.7.4-.8,1.1-1.3,1.9-1.6"/>
    <path class="cls-2" d="M270.2,92.6c.7,0,1.5.2,2,.7.4.4.7,1,.7,1.6,0,.8-.3,1.6-.9,2.1-.8.8-1.6.8-2.7.8h-3.2c0-.1,0-.2,0-.2v-.2c.2-.4.3-.7.5-1.1.8-1.5,1.8-3.2,3.5-3.8"/>
    <path class="cls-2" d="M258.9,85.2c.3,0,.6,0,1,0,.8,0,1.6.4,2.2,1,.4.4.7,1,.8,1.6.5,1.9.2,7.7.1,10h-2.4s-4.3,0-4.3,0c0-2.1-.4-9.1.2-10.6.4-1,1.4-1.5,2.3-1.9"/>
    <path class="cls-2" d="M255.8,99.8c2.6,0,5.2,0,7.8,0v25.1c-2.6,0-5.2,0-7.8,0v-25Z"/>
    <path class="cls-2" d="M272,56.4c.2-.2.4-.4.7-.5.3-.1.6,0,.9,0,.3.2.6.4.7.8,0,.3,0,.6,0,.9-.1.8-.4,1.7-.6,2.5-.3,1.1-.5,2.5-1,3.6,0,0-.1.1-.2.2,0,0-.2.1-.2.2-.4.2-.8.2-1.2,0-.3-.1-.6-.4-.7-.7,0-.2,0-.5,0-.7.1-.9,1.3-5.6,1.7-6.3"/>
    <path class="cls-2" d="M287.7,77.7c.2-.2.3-.3.5-.4.9-.4,6-1.8,6.9-1.8.2,0,.5,0,.7.1.3.1.5.4.6.7.1.4,0,.8-.1,1.2-.1.1-.2.3-.4.3-.8.4-2.3.7-3.2.9-1.1.3-2.3.7-3.5,1-.3,0-.6.1-.9,0-.3-.1-.5-.3-.6-.6-.2-.5-.2-.9,0-1.3"/>
    <path class="cls-2" d="M282.3,66.9c.6-.6,4.3-4.4,4.8-4.6.3-.2.7-.2,1,0,.3.1.6.4.7.7.2.5.1.9,0,1.3-.8.9-1.7,1.6-2.5,2.5-.6.6-1.2,1.3-1.9,1.9-.2.2-.4.4-.7.4-.3.1-.6,0-.9,0-.3-.2-.6-.5-.7-.8-.1-.5,0-.9.2-1.3"/>
    <path class="cls-2" d="M255.7,58.8c.1-.1.3-.2.4-.3,0,0,0,0,.1,0,0,0,0,0,.1,0,0,0,0,0,.1,0,0,0,0,0,.1,0,0,0,0,0,.1,0,0,0,0,0,.1,0,0,0,0,0,.1,0,0,0,0,0,.1,0,.2,0,.3.2.4.3.6.9,1,2.1,1.4,3,.5,1.1,1,2.3,1.4,3.5.2.6,0,.9-.2,1.4-.1.1-.2.2-.4.3-.4.1-.8.1-1.1,0-.2,0-.4-.2-.5-.4-.4-.7-.7-1.7-1.1-2.5-.5-1.3-1.3-2.8-1.7-4.1-.1-.5,0-.8.3-1.2"/>
    <path class="cls-1" d="M137.7,275.3C61.8,275.3,0,213.6,0,137.7S61.8,0,137.7,0s72.7,14.9,98.9,41.9c2.2,2.2,4.3,4.6,6.3,6.9,5,5.9,4.3,14.8-1.7,19.8-5.9,5-14.8,4.3-19.8-1.7-1.6-1.9-3.3-3.7-5-5.5-20.8-21.5-48.8-33.4-78.7-33.4-60.4,0-109.6,49.2-109.6,109.6s49.2,109.6,109.6,109.6,85.1-27.1,101.8-69c1.9-4.7,3.4-9.5,4.6-14.4,1.8-7.5,9.5-12.1,17-10.3,7.5,1.8,12.1,9.4,10.3,17-1.5,6.1-3.5,12.2-5.8,18.1-21,52.6-71.2,86.6-127.9,86.6"/>
  </g>
  <g>
    <path class="cls-2" d="M421.9,193.5c1.4,0,2,2.3,2,7s-.7,7.1-2,7.1h-5.8c-.2,7.9-3.8,13.8-10.8,17.8-7,4-18,5.9-33.1,5.9s-25.1-2.2-32.7-6.7c-7.6-4.5-11.4-11.8-11.4-22s.2-4.9.5-8c.3-3.1.8-6,1.5-8.7l15.2,3.3c-.5,1.8-.9,3.9-1.2,6.4-.3,2.5-.5,4.8-.5,6.9,0,3.5.8,6.3,2.4,8.4,1.6,2.1,4.4,3.6,8.5,4.7,4.1,1,9.9,1.6,17.3,1.6s17.2-.8,21.2-2.4c4-1.6,5.9-3.9,5.9-7.1v-.2c-9.2-.3-16.2-2.9-21-7.8l10.9-10c1.4,1.4,3,2.4,4.7,2.9,1.7.5,4.2.8,7.4.8h21ZM364.9,252.1c-2,0-3.7-.7-5-2-1.3-1.3-2-3.1-2-5.1s.7-3.8,2-5.1c1.3-1.3,3-2,5-2s3.7.7,5,2c1.3,1.3,2,3.1,2,5.1s-.7,3.8-2,5.1c-1.3,1.3-3,2-5,2h0ZM381.8,252.1c-2,0-3.7-.7-5-2-1.3-1.3-2-3.1-2-5.1s.7-3.8,2-5.1c1.3-1.3,3-2,5-2s3.7.7,5,2c1.3,1.3,2,3.1,2,5.1s-.7,3.8-2,5.1c-1.3,1.3-3,2-5,2h0Z"/>
    <g>
      <path class="cls-1" d="M688.7,149.3c2,0,3.7-.7,5-2,1.3-1.3,2-3.1,2-5.1s-.7-3.8-2-5.1c-1.3-1.3-3-2-5-2s-3.7.7-5,2c-1.3,1.3-2,3.1-2,5.1s.7,3.8,2,5.1c1.3,1.3,3,2,5,2Z"/>
      <path class="cls-1" d="M705.7,149.3c2,0,3.7-.7,5-2,1.3-1.3,2-3.1,2-5.1s-.7-3.8-2-5.1c-1.3-1.3-3-2-5-2s-3.7.7-5,2c-1.3,1.3-2,3.1-2,5.1s.7,3.8,2,5.1c1.3,1.3,3,2,5,2Z"/>
      <rect class="cls-1" x="812.4" y="131.6" width="15.6" height="76"/>
      <path class="cls-1" d="M473.5,159.5c-5.3-4.3-11.2-6.4-17.6-6.4s-11.1,1.9-14.7,5.8c-3.6,3.9-6,8-7.4,12.6-1.4,4.5-2.4,9.3-3,14.3l-.3,2c-.3,2-1.1,3.4-2.2,4.4-1.1.9-2.7,1.4-4.7,1.4h-1.4c-1.4,0-2,2.3-2,7s.7,7.1,2,7.1h5.3c5.1,0,9.3-1.4,12.7-4.3,6.4,2.8,12.9,4.3,19.6,4.3s9.4-.6,14.9-1.7c5.5-1.1,10.7-2.8,15.4-5,.3-8.7-1.1-16.7-4.1-24-3-7.3-7.2-13.1-12.5-17.4ZM459.8,193.5c-2.4,0-4.6-.3-6.7-.9-2.1-.6-4.5-1.5-7.1-2.8.4-4.3.9-8,1.4-11,.5-3,1.5-5.7,3-8.1,1.5-2.4,3.5-3.7,6-3.7s4.9,1.1,7.3,3.2c2.4,2.2,4.5,5.1,6.3,8.9,1.8,3.8,3.1,7.8,3.9,12.2-5.1,1.4-9.8,2-14.1,2Z"/>
      <path class="cls-1" d="M796.6,176.1c-1.6-4.3-4.2-8-7.6-11.1-3.4-3.1-8-5.9-13.6-8.5-4.6-2.2-9.7-4.1-15.2-5.7-5.5-1.7-15-4.2-28.4-7.6l-3.9,13.6c3.6.9,6.7,1.7,9.3,2.4-2.3,2.2-4.1,5.1-5.3,8.5-1.3,3.4-1.9,7.2-1.9,11.4s.7,9.3,2,14.3h-22c-2.4,0-4.3-.6-5.9-1.7.4-2.2.6-4.5.6-7v-28.4h-15.6v28.3c0,3.2-.6,5.4-1.8,6.8-1.2,1.4-3.4,2-6.5,2h-49.3c-2.4,0-4.3-.3-5.7-1-1.4-.7-2.6-1.8-3.4-3.2-1.1-6.9-3.2-13.1-6.4-18.6-3.2-5.5-7.2-9.8-11.9-12.9-4.7-3.1-9.8-4.7-15.2-4.7s-11.1,1.9-14.7,5.8c-3.6,3.9-6,8-7.4,12.6-1.4,4.5-2.4,9.3-3,14.3l-.3,2c-.3,2-1.1,3.4-2.2,4.4-1.1.9-2.7,1.4-4.7,1.4h-39.2v-61.9h-15.6v76h58.7c5.1,0,9.3-1.4,12.7-4.3,6.4,2.8,12.9,4.3,19.6,4.3s7.5-.4,12-1.2c4.5-.8,8.9-1.9,13.1-3.4,4.3,3,9.7,4.6,16.2,4.6h48.6c6.7,0,11.9-1.7,15.6-5,3.7,3.3,8.6,5,14.7,5h84.8l.6-15.6c.3-6.2-.4-11.5-2-15.8ZM593,193.5c-2.4,0-4.6-.3-6.7-.9-2.1-.6-4.5-1.5-7.1-2.8.4-4.3.9-8,1.4-11,.5-3,1.5-5.7,3-8.1,1.5-2.4,3.5-3.7,6-3.7s4.9,1.1,7.3,3.2c2.4,2.2,4.5,5.1,6.3,8.9,1.8,3.8,3.1,7.8,3.9,12.2-5.1,1.4-9.8,2-14.1,2ZM760.1,193.5h-14c-1.6-5-2.3-9.8-2.3-14.4s.8-7.5,2.3-10c1.6-2.5,3.7-3.7,6.3-3.7s4.3,1.1,5.7,3.2c1.4,2.2,2,4.8,2,8v16.8ZM783,190.8v2.7h-9.3v-16.8c0-2-.1-3.8-.4-5.2,3.9,2.2,6.5,4.8,7.9,7.7,1.4,2.9,2,6.8,1.8,11.6Z"/>
      <path class="cls-1" d="M820.7,228.3c-.9-.1-1.7-.5-2.2-1.2-.5-.6-.8-1.4-.8-2.2s.4-1.8,1.3-2.5c.9-.6,2.1-1,3.8-1s1.8.1,2.7.3c.9.2,1.7.5,2.3.8l3.7-8c-1.2-.5-2.6-1-4.3-1.4-1.6-.4-3.1-.6-4.6-.6-3.8,0-6.9,1.1-9.4,3.3-2.5,2.2-3.7,5-3.7,8.5s.2,2.6.6,3.9h-1.9v8.3h24v-8.3h-11.6Z"/>
    </g>
  </g>
</svg>